<svg width="20" height="20" viewBox="0 0 20 20" fill="none" xmlns="http://www.w3.org/2000/svg">
<path d="M14 7C14 9.20914 12.2091 11 10 11C7.79086 11 6 9.20914 6 7C6 4.79086 7.79086 3 10 3C12.2091 3 14 4.79086 14 7Z" fill="white"/>
<path d="M1 10C1 6.25027 1 4.3754 1.95491 3.06107C2.26331 2.6366 2.6366 2.26331 3.06107 1.95491C4.3754 1 6.25027 1 10 1C13.7497 1 15.6246 1 16.9389 1.95491C17.3634 2.26331 17.7367 2.6366 18.0451 3.06107C19 4.3754 19 6.25027 19 10C19 13.7497 19 15.6246 18.0451 16.9389C17.7516 17.3429 17.3993 17.7006 17 18C16.9798 18.0152 16.9594 18.0302 16.9389 18.0451C15.6246 19 13.7497 19 10 19C6.25027 19 4.3754 19 3.06107 18.0451C3.04176 18.0311 3.02255 18.0169 3.00344 18.0026C2.60276 17.7026 2.24928 17.3441 1.95491 16.9389C1 15.6246 1 13.7497 1 10Z" fill="white"/>
<path d="M3.06107 18.0451L2.62023 18.6518L3.06107 18.0451ZM1.95491 16.9389L1.34815 17.3798H1.34815L1.95491 16.9389ZM18.0451 16.9389L17.4383 16.4981L18.0451 16.9389ZM16.9389 18.0451L16.4981 17.4383L16.9389 18.0451ZM16.9389 1.95491L16.4981 2.56168L16.9389 1.95491ZM18.0451 3.06107L17.4383 3.50191L18.0451 3.06107ZM3.06107 1.95491L3.50191 2.56168L3.06107 1.95491ZM1.95491 3.06107L2.56168 3.50191L1.95491 3.06107ZM3.00344 17.8325L2.25408 17.8016L2.25344 17.8171V17.8325H3.00344ZM16.9905 17.7225L17.7401 17.6969L17.7396 17.6841L17.7388 17.6712L16.9905 17.7225ZM13.25 7C13.25 8.79493 11.7949 10.25 10 10.25V11.75C12.6234 11.75 14.75 9.62335 14.75 7H13.25ZM10 10.25C8.20507 10.25 6.75 8.79493 6.75 7H5.25C5.25 9.62335 7.37665 11.75 10 11.75V10.25ZM6.75 7C6.75 5.20507 8.20507 3.75 10 3.75V2.25C7.37665 2.25 5.25 4.37665 5.25 7H6.75ZM10 3.75C11.7949 3.75 13.25 5.20507 13.25 7H14.75C14.75 4.37665 12.6234 2.25 10 2.25V3.75ZM10 18.25C8.10843 18.25 6.74999 18.249 5.69804 18.135C4.66013 18.0225 4.00992 17.8074 3.50191 17.4383L2.62023 18.6518C3.42656 19.2377 4.37094 19.5 5.53648 19.6263C6.68798 19.751 8.14184 19.75 10 19.75V18.25ZM0.25 10C0.25 11.8582 0.248971 13.312 0.373728 14.4635C0.500006 15.6291 0.762324 16.5734 1.34815 17.3798L2.56168 16.4981C2.19259 15.9901 1.97745 15.3399 1.865 14.302C1.75103 13.25 1.75 11.8916 1.75 10H0.25ZM18.25 10C18.25 11.8916 18.249 13.25 18.135 14.302C18.0225 15.3399 17.8074 15.9901 17.4383 16.4981L18.6518 17.3798C19.2377 16.5734 19.5 15.6291 19.6263 14.4635C19.751 13.312 19.75 11.8582 19.75 10H18.25ZM10 19.75C11.8582 19.75 13.312 19.751 14.4635 19.6263C15.6291 19.5 16.5734 19.2377 17.3798 18.6518L16.4981 17.4383C15.9901 17.8074 15.3399 18.0225 14.302 18.135C13.25 18.249 11.8916 18.25 10 18.25V19.75ZM10 1.75C11.8916 1.75 13.25 1.75103 14.302 1.865C15.3399 1.97745 15.9901 2.19259 16.4981 2.56168L17.3798 1.34815C16.5734 0.762324 15.6291 0.500006 14.4635 0.373728C13.312 0.248971 11.8582 0.25 10 0.25V1.75ZM19.75 10C19.75 8.14184 19.751 6.68798 19.6263 5.53648C19.5 4.37094 19.2377 3.42656 18.6518 2.62023L17.4383 3.50191C17.8074 4.00992 18.0225 4.66013 18.135 5.69804C18.249 6.74999 18.25 8.10843 18.25 10H19.75ZM16.4981 2.56168C16.8589 2.82382 17.1762 3.14111 17.4383 3.50191L18.6518 2.62023C18.2972 2.13209 17.8679 1.70281 17.3798 1.34815L16.4981 2.56168ZM10 0.25C8.14184 0.25 6.68798 0.248971 5.53648 0.373728C4.37094 0.500006 3.42656 0.762324 2.62023 1.34815L3.50191 2.56168C4.00992 2.19259 4.66013 1.97745 5.69804 1.865C6.74999 1.75103 8.10843 1.75 10 1.75V0.25ZM1.75 10C1.75 8.10843 1.75103 6.74999 1.865 5.69804C1.97745 4.66013 2.19259 4.00992 2.56168 3.50191L1.34815 2.62023C0.762324 3.42656 0.500006 4.37094 0.373728 5.53648C0.248971 6.68798 0.25 8.14184 0.25 10H1.75ZM2.62023 1.34815C2.13209 1.70281 1.70281 2.13209 1.34815 2.62023L2.56168 3.50191C2.82382 3.14111 3.14111 2.82382 3.50191 2.56168L2.62023 1.34815ZM7 14.75H13V13.25H7V14.75ZM7 13.25C4.4431 13.25 2.35837 15.27 2.25408 17.8016L3.75281 17.8634C3.82413 16.1321 5.25085 14.75 7 14.75V13.25ZM3.50191 17.4383C3.4855 17.4264 3.46917 17.4144 3.45293 17.4022L2.55396 18.603C2.57592 18.6194 2.59801 18.6357 2.62023 18.6518L3.50191 17.4383ZM3.45293 17.4022C3.11235 17.1472 2.81189 16.8425 2.56168 16.4981L1.34815 17.3798C1.68667 17.8457 2.09317 18.258 2.55396 18.603L3.45293 17.4022ZM2.25344 17.8325V18.0026H3.75344V17.8325H2.25344ZM13 14.75C14.7188 14.75 16.1265 16.0848 16.2423 17.7738L17.7388 17.6712C17.5695 15.2009 15.5129 13.25 13 13.25V14.75ZM17.4383 16.4981C17.1888 16.8415 16.8894 17.1455 16.55 17.4L17.45 18.6C17.9092 18.2556 18.3143 17.8444 18.6518 17.3798L17.4383 16.4981ZM16.55 17.4C16.5328 17.4129 16.5155 17.4257 16.4981 17.4383L17.3798 18.6518C17.4033 18.6347 17.4267 18.6175 17.45 18.6L16.55 17.4ZM16.241 17.7481L16.2504 18.0256L17.7496 17.9744L17.7401 17.6969L16.241 17.7481Z" fill="#9D99B4"/>
</svg>
