<svg width="20" height="20" viewBox="0 0 20 20" fill="none" xmlns="http://www.w3.org/2000/svg">
<path fill-rule="evenodd" clip-rule="evenodd" d="M10.0452 0.25C11.8818 0.249992 13.3214 0.249985 14.4635 0.373728C15.6291 0.500006 16.5734 0.762324 17.3798 1.34815C17.8679 1.70281 18.2972 2.13209 18.6518 2.62024C19.2377 3.42656 19.5 4.37094 19.6263 5.53648C19.75 6.67859 19.75 8.11816 19.75 9.95465V10.0453C19.75 11.8818 19.75 13.3214 19.6263 14.4635C19.5 15.6291 19.2377 16.5734 18.6518 17.3798C18.3143 17.8444 17.9092 18.2556 17.45 18.6C17.4402 18.6074 17.4303 18.6147 17.4204 18.6221C17.4098 18.6299 17.3992 18.6377 17.3886 18.6454L17.3798 18.6518C16.5734 19.2377 15.6291 19.5 14.4635 19.6263C13.3214 19.75 11.8818 19.75 10.0453 19.75H9.95473C8.11824 19.75 6.67859 19.75 5.53648 19.6263C4.37094 19.5 3.42656 19.2377 2.62024 18.6518C2.59801 18.6357 2.57592 18.6194 2.55396 18.603C2.09317 18.258 1.68667 17.8457 1.34815 17.3798C0.762324 16.5734 0.500006 15.6291 0.373728 14.4635C0.249985 13.3214 0.249992 11.8818 0.25 10.0452V9.95475C0.249992 8.11821 0.249985 6.67861 0.373728 5.53648C0.500006 4.37094 0.762324 3.42656 1.34815 2.62024C1.70281 2.13209 2.13209 1.70281 2.62024 1.34815C3.42656 0.762324 4.37094 0.500006 5.53648 0.373728C6.67861 0.249985 8.11821 0.249992 9.95475 0.25H10.0452ZM16.8999 17.1069C16.4942 15.3277 14.9021 14 13 14H7C5.09786 14 3.50583 15.3277 3.10008 17.1069C3.21214 17.2115 3.32992 17.3101 3.45293 17.4022C3.46918 17.4144 3.4855 17.4264 3.50191 17.4383C4.00992 17.8074 4.66013 18.0225 5.69804 18.135C6.74999 18.249 8.10843 18.25 10 18.25C11.8916 18.25 13.25 18.249 14.302 18.135C15.3399 18.0225 15.9901 17.8074 16.4981 17.4383C16.5155 17.4257 16.5328 17.4129 16.55 17.4C16.672 17.3085 16.7887 17.2107 16.8999 17.1069ZM10 2.25C7.37665 2.25 5.25 4.37665 5.25 7C5.25 9.62335 7.37665 11.75 10 11.75C12.6234 11.75 14.75 9.62335 14.75 7C14.75 4.37665 12.6234 2.25 10 2.25Z" fill="#363062"/>
</svg>
