<svg width="24" height="24" viewBox="0 0 24 24" fill="none" xmlns="http://www.w3.org/2000/svg">
<path d="M6.29318 4.70163C8.95999 2.76407 10.2934 1.79529 11.8162 1.73943C11.9384 1.73495 12.0607 1.73495 12.1828 1.73943C13.7056 1.79529 15.039 2.76407 17.7059 4.70163C20.3727 6.63918 21.7061 7.60796 22.2298 9.03898C22.2718 9.15377 22.3096 9.27007 22.3431 9.38764C22.7605 10.8532 22.2512 12.4207 21.2326 15.5557C20.2139 18.6908 19.7046 20.2583 18.5055 21.1986C18.4093 21.274 18.3103 21.3459 18.2089 21.414C16.9441 22.2639 15.2959 22.2639 11.9995 22.2639C8.70315 22.2639 7.05497 22.2639 5.79015 21.414C5.68869 21.3459 5.58976 21.274 5.49356 21.1986C4.29442 20.2583 3.7851 18.6908 2.76647 15.5557C1.74783 12.4207 1.23852 10.8532 1.65596 9.38764C1.68945 9.27007 1.72724 9.15377 1.76925 9.03898C2.29295 7.60796 3.62636 6.63918 6.29318 4.70163Z" fill="white"/>
<path d="M2.76647 15.5557L3.47976 15.324L2.76647 15.5557ZM1.65596 9.38764L2.37727 9.5931L1.65596 9.38764ZM6.29318 4.70163L5.85234 4.09486L6.29318 4.70163ZM1.76925 9.03898L2.47357 9.29674L1.76925 9.03898ZM5.79015 21.414L5.37185 22.0366L5.79015 21.414ZM5.49356 21.1986L5.03078 21.7887L5.49356 21.1986ZM21.2326 15.5557L20.5193 15.324L21.2326 15.5557ZM18.5055 21.1986L18.9683 21.7887L18.5055 21.1986ZM18.2089 21.414L18.6272 22.0366L18.2089 21.414ZM17.7059 4.70163L18.1467 4.09486L17.7059 4.70163ZM22.2298 9.03898L21.5255 9.29674L22.2298 9.03898ZM22.3431 9.38764L21.6218 9.5931L22.3431 9.38764ZM12.1828 1.73943L12.1553 2.48893L12.1828 1.73943ZM11.8162 1.73943L11.8437 2.48893L11.8162 1.73943ZM9.99952 16.8057C9.5853 16.8057 9.24952 17.1415 9.24952 17.5557C9.24952 17.9699 9.5853 18.3057 9.99952 18.3057V16.8057ZM13.9995 18.3057C14.4137 18.3057 14.7495 17.9699 14.7495 17.5557C14.7495 17.1415 14.4137 16.8057 13.9995 16.8057V18.3057ZM3.47976 15.324C2.96541 13.7409 2.59902 12.61 2.40676 11.6919C2.21812 10.791 2.21405 10.1661 2.37727 9.5931L0.934654 9.18218C0.680434 10.0747 0.722296 10.9663 0.938607 11.9993C1.15131 13.0151 1.54889 14.2355 2.05317 15.7875L3.47976 15.324ZM5.85234 4.09486C4.53212 5.05406 3.49316 5.80765 2.72402 6.50442C1.94183 7.21299 1.38386 7.90975 1.06493 8.78122L2.47357 9.29674C2.67834 8.73719 3.04893 8.23405 3.73108 7.61609C4.42627 6.98632 5.38742 6.28675 6.73402 5.30839L5.85234 4.09486ZM2.37727 9.5931C2.40574 9.49316 2.43786 9.39431 2.47357 9.29674L1.06493 8.78122C1.01662 8.91324 0.973164 9.04698 0.934654 9.18218L2.37727 9.5931ZM11.9995 21.5139C10.335 21.5139 9.14624 21.5129 8.21366 21.412C7.29856 21.3131 6.70301 21.1238 6.20845 20.7915L5.37185 22.0366C6.14211 22.5541 7.00306 22.7899 8.05235 22.9033C9.08415 23.0149 10.3676 23.0139 11.9995 23.0139V21.5139ZM2.05317 15.7875C2.55745 17.3395 2.95311 18.5605 3.37809 19.5073C3.81028 20.4702 4.30051 21.2161 5.03078 21.7887L5.95635 20.6084C5.48747 20.2407 5.12347 19.7328 4.74656 18.893C4.36244 18.0373 3.99411 16.907 3.47976 15.324L2.05317 15.7875ZM6.20845 20.7915C6.1222 20.7336 6.03811 20.6725 5.95635 20.6084L5.03078 21.7887C5.1414 21.8755 5.25517 21.9582 5.37185 22.0366L6.20845 20.7915ZM20.5193 15.324C20.0049 16.907 19.6366 18.0373 19.2525 18.8931C18.8756 19.7328 18.5116 20.2407 18.0427 20.6084L18.9683 21.7887C19.6985 21.2161 20.1888 20.4702 20.6209 19.5073C21.0459 18.5605 21.4416 17.3395 21.9459 15.7875L20.5193 15.324ZM11.9995 23.0139C13.6314 23.0139 14.9149 23.0149 15.9467 22.9033C16.996 22.7899 17.8569 22.5541 18.6272 22.0366L17.7906 20.7915C17.296 21.1238 16.7005 21.3131 15.7854 21.412C14.8528 21.5129 13.664 21.5139 11.9995 21.5139V23.0139ZM18.0427 20.6084C17.9609 20.6725 17.8768 20.7336 17.7906 20.7915L18.6272 22.0366C18.7439 21.9582 18.8576 21.8755 18.9683 21.7887L18.0427 20.6084ZM17.265 5.30839C18.6116 6.28675 19.5728 6.98632 20.268 7.61609C20.9501 8.23405 21.3207 8.73719 21.5255 9.29674L22.9341 8.78122C22.6152 7.90975 22.0572 7.21299 21.275 6.50442C20.5059 5.80765 19.4669 5.05406 18.1467 4.09486L17.265 5.30839ZM21.9459 15.7875C22.4501 14.2355 22.8477 13.0151 23.0604 11.9993C23.2767 10.9663 23.3186 10.0747 23.0644 9.18218L21.6218 9.5931C21.785 10.1661 21.7809 10.791 21.5923 11.6919C21.4 12.61 21.0336 13.7409 20.5193 15.324L21.9459 15.7875ZM21.5255 9.29674C21.5612 9.39431 21.5933 9.49316 21.6218 9.5931L23.0644 9.18218C23.0259 9.04698 22.9824 8.91324 22.9341 8.78122L21.5255 9.29674ZM18.1467 4.09486C16.8265 3.13567 15.7887 2.38043 14.8884 1.86424C13.9728 1.3393 13.1377 1.02395 12.2103 0.989934L12.1553 2.48893C12.7508 2.51077 13.3438 2.70774 14.1423 3.16554C14.9561 3.6321 15.9184 4.33003 17.265 5.30839L18.1467 4.09486ZM6.73402 5.30839C8.08061 4.33003 9.04296 3.6321 9.85673 3.16554C10.6552 2.70774 11.2483 2.51077 11.8437 2.48893L11.7887 0.989934C10.8613 1.02395 10.0263 1.3393 9.11066 1.86424C8.21032 2.38043 7.17256 3.13567 5.85234 4.09486L6.73402 5.30839ZM12.2103 0.989934C12.0698 0.98478 11.9292 0.98478 11.7887 0.989934L11.8437 2.48893C11.9475 2.48512 12.0515 2.48512 12.1553 2.48893L12.2103 0.989934ZM9.99952 18.3057H13.9995V16.8057H9.99952V18.3057Z" fill="#9D99B4"/>
</svg>
