<svg width="22" height="22" viewBox="0 0 22 22" fill="none" xmlns="http://www.w3.org/2000/svg">
<path fill-rule="evenodd" clip-rule="evenodd" d="M5.29318 3.70163C2.62636 5.63918 1.29295 6.60796 0.769249 8.03898C0.727238 8.15377 0.68945 8.27007 0.655963 8.38764C0.238517 9.85318 0.747834 11.4207 1.76647 14.5557C2.7851 17.6908 3.29442 19.2583 4.49356 20.1986C4.58976 20.274 4.68869 20.3459 4.79015 20.414C6.05497 21.2639 7.70315 21.2639 10.9995 21.2639C14.2959 21.2639 15.9441 21.2639 17.2089 20.414C17.3103 20.3459 17.4093 20.274 17.5055 20.1986C18.7046 19.2583 19.2139 17.6908 20.2326 14.5557C21.2512 11.4207 21.7605 9.85318 21.3431 8.38764C21.3096 8.27007 21.2718 8.15377 21.2298 8.03898C20.7061 6.60796 19.3727 5.63919 16.7059 3.70164C14.0391 1.76408 12.7056 0.795294 11.1828 0.73943C11.0607 0.734948 10.9384 0.734948 10.8162 0.73943C9.2934 0.795294 7.95999 1.76407 5.29318 3.70163ZM8.99951 15.8057C8.5853 15.8057 8.24951 16.1415 8.24951 16.5557C8.24951 16.9699 8.5853 17.3057 8.99951 17.3057H12.9995C13.4137 17.3057 13.7495 16.9699 13.7495 16.5557C13.7495 16.1415 13.4137 15.8057 12.9995 15.8057H8.99951Z" fill="#363062"/>
</svg>
